<?xml version="1.0" encoding="UTF-8"?>
<svg width="600" height="400" version="1.1" xmlns="http://www.w3.org/2000/svg">
  <!-- Robust arrowhead marker: explicit size, ref point, and fill -->
  <marker id="a" markerWidth="6" markerHeight="6" refX="0" refY="0" orient="auto" markerUnits="strokeWidth" overflow="visible">
    <path transform="matrix(-1.1,0,0,-1.1,-1.1,0)"
          d="M 8.7186 4.0337 L -2.2074 0.0160 L 8.7186 -4.0017 C 6.9731 -1.6296 6.9832 1.6158 8.7186 4.0337 Z"
          fill="#000" stroke="none"/>
  </marker>
  <g fill="#ccecff" stroke="#000" stroke-width="3">
    <circle cx="300" cy="360" r="20"/>
    <circle cx="300" cy="280" r="20"/>
    <circle cx="300" cy="200" r="20"/>
    <circle cx="300" cy="40" r="20"/>
    <circle cx="300" cy="120" r="20"/>
  </g>
  <g stroke="#000" stroke-width="3">
    <circle cx="120" cy="150" r="20" fill="#cfc"/>
    <circle cx="120" cy="250" r="20" fill="#cfc"/>
    <circle cx="480" cy="200" r="20" fill="#ff9"/>
  </g>
  <g fill="none" stroke="#000" stroke-width="2">
    <path d="m140 150 140-110"/>
    <path d="m140 250 140-210"/>
    <path d="m140 150 140-30"/>
    <path d="m140 250 140-130"/>
    <path d="m140 150 140 50"/>
    <path d="m140 250 140-50"/>
    <path d="m140 150 140 130"/>
    <path d="m140 250 140 30"/>
    <path d="m140 150 140 210"/>
    <path d="m140 250 140 110"/>
    <path d="m320 40 140 160"/>
    <path d="m320 120 140 80"/>
    <path d="m320 200h140"/>
    <path d="m320 280 140-80"/>
    <path d="m320 360 140-160"/>
    <path d="m30 150h50" marker-end="url(#a)"/>
    <path d="m515 200h50" marker-end="url(#a)"/>
    <path d="m30 250h50" marker-end="url(#a)"/>
  </g>
</svg>
